<?xml version="1.0" standalone="no"?>
<!DOCTYPE svg PUBLIC "-//W3C//DTD SVG 20010904//EN"
 "http://www.w3.org/TR/2001/REC-SVG-20010904/DTD/svg10.dtd">
<svg version="1.0" xmlns="http://www.w3.org/2000/svg"
 width="200.000000pt" height="140.000000pt" viewBox="0 0 200.000000 140.000000"
 preserveAspectRatio="xMidYMid meet">

<g transform="translate(0.000000,140.000000) scale(0.100000,-0.100000)"
fill="#000000" stroke="none">
<path d="M807 832 c-64 -147 -117 -271 -117 -275 0 -4 47 -7 104 -7 l103 0 18
63 c9 34 22 68 27 75 6 7 33 12 63 12 60 0 68 -7 85 -70 6 -25 13 -53 16 -62
5 -16 19 -18 104 -18 54 0 101 4 104 8 2 4 -22 68 -54 142 -56 128 -60 135
-89 138 -36 4 -42 -14 -8 -27 16 -6 35 -36 65 -106 23 -53 42 -103 42 -111 0
-11 -16 -14 -69 -14 -58 0 -71 3 -75 18 -3 9 -12 43 -21 75 l-16 57 -84 0 -83
0 -11 -32 c-5 -18 -15 -52 -21 -75 l-11 -43 -69 0 c-60 0 -70 2 -70 18 1 9 45
118 99 242 l99 225 64 3 65 3 31 -71 c17 -38 36 -70 41 -70 17 0 14 13 -23 94
l-35 76 -79 0 -78 0 -117 -268z"/>
<path d="M966 896 c-25 -84 -24 -86 39 -86 62 0 62 -1 39 82 -14 49 -20 58
-40 58 -19 0 -25 -9 -38 -54z m58 -28 c6 -25 4 -28 -20 -28 -24 0 -25 2 -19
33 13 58 24 57 39 -5z"/>
<path d="M351 385 c-34 -82 -35 -85 -23 -85 5 0 14 11 20 25 8 18 19 25 40 25
21 0 32 -7 40 -25 10 -22 39 -38 30 -17 -43 105 -64 152 -69 152 -3 0 -20 -34
-38 -75z m52 5 c4 -15 0 -20 -15 -20 -14 0 -18 5 -14 16 3 9 6 20 6 25 0 17
17 1 23 -21z"/>
<path d="M542 437 c-32 -34 -30 -89 4 -116 48 -38 113 -19 129 37 6 20 3 22
-29 22 -20 0 -36 -4 -36 -9 0 -5 9 -7 20 -4 27 7 27 -23 1 -37 -29 -15 -49
-12 -71 10 -25 25 -26 62 -2 83 22 20 63 22 80 5 6 -6 15 -8 19 -4 13 12 -28
36 -62 36 -20 0 -39 -8 -53 -23z"/>
<path d="M758 380 l4 -80 39 0 c21 0 39 5 39 10 0 6 -13 10 -30 10 -27 0 -30
3 -30 30 0 27 3 30 30 30 17 0 30 5 30 10 0 6 -13 10 -30 10 -23 0 -30 4 -30
20 0 16 7 20 30 20 17 0 30 5 30 10 0 6 -19 10 -42 10 l-43 0 3 -80z"/>
<path d="M950 450 c0 -5 9 -10 20 -10 18 0 20 -7 20 -70 0 -90 18 -92 22 -2 3
61 5 67 26 70 44 7 21 22 -33 22 -30 0 -55 -4 -55 -10z"/>
<path d="M1170 380 c0 -47 4 -80 10 -80 6 0 10 17 10 37 l0 38 27 -38 c27 -39
63 -54 44 -19 -5 10 -17 24 -25 32 -21 17 -20 27 4 33 13 3 20 14 20 29 0 33
-18 48 -57 48 l-33 0 0 -80z m65 35 c0 -13 -8 -21 -22 -23 -19 -3 -23 1 -23
23 0 22 4 26 23 23 14 -2 22 -10 22 -23z"/>
<path d="M1376 393 c-16 -38 -30 -74 -33 -80 -10 -25 18 -13 29 12 8 18 19 25
40 25 21 0 31 -6 38 -25 8 -21 30 -36 30 -20 0 14 -64 155 -70 155 -3 0 -19
-30 -34 -67z m44 18 c0 -5 3 -16 6 -25 4 -12 0 -16 -16 -16 -16 0 -20 4 -16
16 3 9 6 20 6 25 0 5 5 9 10 9 6 0 10 -4 10 -9z"/>
<path d="M1550 380 c0 -47 4 -80 10 -80 6 0 10 25 10 55 0 30 2 55 4 55 2 0
29 -26 60 -57 l56 -58 0 83 c0 48 -4 82 -10 82 -5 0 -10 -26 -10 -57 l-1 -58
-53 58 c-29 31 -56 57 -60 57 -3 0 -6 -36 -6 -80z"/>
</g>
</svg>
